# xmcd
#
# Track frame offsets:
#	150
#	13003
#	28234
#	46934
#	67896
#	93656
#	112146
#	127272
#	141269
#	168283
#	185103
#	197550
#
# Disc length: 2851 seconds
#
# Revision: 1
# Processed by: cddbd v1.5.1PL2 Copyright (c) Steve Scherf et al.
# Submitted via: audiograbber 1.83.01
#
DISCID=b20b210c
DTITLE=Alaska - 1994-11-18 - Thunderock Tavern - York PA
DYEAR=1994
DGENRE=Progressive Rock
TTITLE0=Alaska - Fire
TTITLE1=Alaska - The Royal Road
TTITLE2=Alaska - The End
TTITLE3=Alaska - Baba O'Riley
TTITLE4=Alaska - Hunger
TTITLE5=Alaska - Do You Feel Like We Do
TTITLE6=Alaska - Superstition
TTITLE7=Alaska - Throw The Horse Over The Fence Some Hay (Oncet)
TTITLE8=Alaska - Cliffs Of Dover
TTITLE9=Alaska - Crossroads
TTITLE10=Alaska - Fire
TTITLE11=Alaska - Hocus Pocus
EXTD=
EXTT0=
EXTT1=
EXTT2=
EXTT3=
EXTT4=
EXTT5=
EXTT6=
EXTT7=
EXTT8=
EXTT9=
EXTT10=
EXTT11=
PLAYORDER=
